<svg xmlns="http://www.w3.org/2000/svg" viewBox="0 0 64 64">
  <rect width="64" height="64" rx="14" fill="#10242b"/>
  <path fill="#f8fbfb" d="M22 7h10v8H22z"/>
  <path fill="#f8fbfb" d="M26 14h4v15h-4z"/>
  <path fill="#f8fbfb" d="M18.7 27.1 28.3 17l5.8 5.5-9.6 10.1z"/>
  <path fill="#f8fbfb" d="M15 29h16a4 4 0 0 1 0 8H15a4 4 0 0 1 0-8z"/>
  <path fill="#f8fbfb" d="M34 35h8v6H34z"/>
  <path fill="#f8fbfb" d="M40 39h5a8 8 0 0 1 0 16H21a8 8 0 0 1-7.8-6.3h7A3 3 0 0 0 23 51h22a4 4 0 0 0 0-8h-5z"/>
  <path fill="#f8fbfb" d="M14 54h36a3 3 0 0 1 3 3v2H11v-2a3 3 0 0 1 3-3z"/>
  <circle cx="31" cy="33" r="2" fill="#2b7785"/>
</svg>
